# xmcd
#
# Track frame offsets:
#	150
#	9634
#	16989
#	36481
#	45170
#	60598
#	89088
#	109970
#	131458
#	147155
#
# Disc length: 2129 seconds
#
# Revision: 0
# Processed by: cddbd v1.5.2PL0 Copyright (c) Steve Scherf et al.
# Submitted via: EasyCDDAExtractor 8.2.3.1
#
DISCID=83084f0a
DTITLE=MARK KNOPFLER - Wag the Dog
DYEAR=1997
DGENRE=Country
TTITLE0=Wag the Dog
TTITLE1=Working On It
TTITLE2=In the Heartland
TTITLE3=An American Hero
TTITLE4=Just Instinct
TTITLE5=Stretching Out
TTITLE6=Drooling National
TTITLE7=Where Going To War
TTITLE8=Gravy Train
TTITLE9=My Claim To Frame
EXTD=
EXTT0=
EXTT1=
EXTT2=
EXTT3=
EXTT4=
EXTT5=
EXTT6=
EXTT7=
EXTT8=
EXTT9=
PLAYORDER=
